<svg width="172" height="200" viewBox="0 0 172 200" fill="none" xmlns="http://www.w3.org/2000/svg">
<path d="M171.209 140.019L85.9997 186.086L0.790042 140.019L43.2823 118.397C43.2823 118.397 40.1469 124.631 37.8261 131.706C37.8261 141.761 61.5806 153.868 86.0051 153.868C110.43 153.868 134.184 141.761 134.184 131.706C132.335 124.754 128.728 118.397 128.728 118.397L171.22 140.019H171.209ZM126.439 112.411C123.754 103.856 121.171 95.27 118.689 86.6568C108.661 91.8612 97.5608 95.5112 85.9944 95.5112C74.428 95.5112 63.3333 91.8558 53.2998 86.6568C50.8182 95.2646 48.2348 103.851 45.5495 112.411C57.9199 118.735 71.6731 123.018 85.989 123.012C100.31 123.012 114.058 118.735 126.429 112.411H126.439ZM111.212 66.3326C108.918 57.6658 106.731 49.8352 104.646 41.1202C98.89 44.261 92.5708 45.9922 85.9997 45.9922C79.4287 45.9922 73.1095 44.261 67.3531 41.1202C65.2681 49.8298 63.076 57.6605 60.7874 66.3326C68.5537 70.4006 77.1132 72.6357 85.9997 72.6303C94.8862 72.6303 103.446 70.3953 111.212 66.3326ZM93.3319 3.00147C93.0746 1.32922 89.8963 0 85.9997 0C82.1032 0 78.9302 1.32386 78.6676 2.99611C77.1454 9.31529 75.5428 14.8841 73.8599 22.2484C77.601 24.2959 81.7119 25.4321 85.9944 25.4321C90.2822 25.4321 94.3878 24.2959 98.1289 22.2484C96.4513 14.8895 94.8487 9.31529 93.3212 3.00147H93.3319ZM85.9997 190.787L0.329102 144.071V153.284L85.9997 200L171.67 153.284V144.071L85.9997 190.787Z" fill="#137894"/>
</svg>
