<svg width="512" height="512" viewBox="0 0 512 512" fill="none" xmlns="http://www.w3.org/2000/svg">
<circle cx="256" cy="256" r="256" fill="white"/>
<path fill-rule="evenodd" clip-rule="evenodd" d="M241.942 263.067L242.123 358.611V359.423C242.123 360.686 242.123 363.212 242.213 365.828V368.715C242.394 372.053 242.484 375.031 242.755 375.572C244.834 380.985 252.516 386.579 260.378 383.331C264.083 381.797 267.066 378.279 267.789 373.858C268.963 366.821 268.331 358.159 268.15 350.4V263.248H340.538V361.498C340.538 370.52 340.809 380.083 340.719 389.195C340.719 392.714 340.538 396.232 340.267 399.571C339.996 403.36 339.996 405.976 339.092 409.134C338.731 410.307 338.369 411.57 337.917 412.653L337.194 414.367C332.133 425.735 322.012 434.576 309.36 437.283C303.576 438.546 295.894 438.095 289.026 437.914H234.803C224.5 437.914 212.029 437.914 203.082 437.644C198.835 437.463 189.526 432.862 184.917 428.982C181.393 426.005 177.597 421.043 174.976 416.171L173.982 414.367C172.356 411.029 171.271 407.871 171.181 405.525C171.181 400.112 171 394.608 171 389.195C171 386.128 171 382.97 171 379.993V263.248H241.942V263.067Z" fill="#15A02B"/>
<path fill-rule="evenodd" clip-rule="evenodd" d="M223.516 74.2223H274.034C284.969 74.2223 296.266 73.7712 306.478 74.493C313.346 74.9441 321.66 79.0942 326.179 82.7933C332.776 88.3869 338.65 96.597 340.458 106.882C340.819 108.867 340.729 110.31 340.729 112.566C341 125.287 341 138.549 341 151.631V251.957H268.702V149.827C268.702 146.128 269.245 141.888 268.702 138.189C268.431 136.114 266.985 134.49 265.991 133.136C263.822 130.249 260.207 127.362 254.966 127.813C248.911 128.264 243.85 133.046 242.765 138.549C241.41 145.226 242.404 160.744 242.494 162.277L242.585 252.137H171.281V126.37C171.281 120.596 170.649 114.461 171.281 108.777C171.643 105.529 172.637 102.1 173.631 99.3036C178.149 86.9434 190.621 75.8463 205.803 74.3125C211.497 73.7712 217.552 74.0419 223.426 74.3125L223.516 74.2223Z" fill="#059BD8"/>
</svg>
