<svg width="118" height="104" viewBox="0 0 118 104" fill="none" xmlns="http://www.w3.org/2000/svg">
<path d="M114.565 70.1312C114.565 87.1782 101.271 101 84.8741 101C75.3685 101 66.9096 96.3566 61.4738 89.1312C60.6711 88.0655 59.9388 86.9434 59.2769 85.7697C58.615 84.6101 58.0283 83.4035 57.5213 82.15C56.0145 78.4552 55.1836 74.3941 55.1836 70.1312C55.1836 56.6618 63.4829 45.2111 75.0493 40.9951C76.9504 40.3003 78.9454 39.8026 81.0014 39.5256C82.1515 39.366 83.3157 39.2815 84.5033 39.2674C84.6253 39.2627 84.7521 39.2627 84.8741 39.2627C101.271 39.2627 114.565 53.0843 114.565 70.1312Z" stroke="#00E5FF" stroke-width="5" stroke-miterlimit="10"/>
<path d="M57.5213 82.1498C56.0145 78.455 55.1836 74.3939 55.1836 70.131C55.1836 56.6615 63.4829 45.2108 75.0493 40.9949C76.9504 40.3 78.9454 39.8024 81.0014 39.5254" stroke="#00E5FF" stroke-width="5" stroke-miterlimit="10"/>
<path d="M73.0352 31.0703C77.4852 32.798 81.4095 35.6384 84.503 39.2675" stroke="#00E5FF" stroke-width="5" stroke-miterlimit="10"/>
<path d="M76.4355 32.4999C72.8351 30.8239 53.0291 23.5352 48.8325 23.5352C32.8958 23.5352 19.9775 36.9671 19.9775 53.5352C19.9775 68.7652 30.8914 81.3427 45.0302 83.2769C45.3119 83.3145 45.5935 83.3521 45.8799 83.3802M45.8799 83.3802C41.6023 80.1246 38.2207 75.6736 36.1891 70.5C34.8164 67.0042 34.06 63.1786 34.06 59.169C34.06 42.6009 46.9783 29.169 62.915 29.169C63.9101 29.169 66.69 28.9812 67.6617 29.0845M45.8799 83.3802L59 88L61.5 89" stroke="#00E5FF" stroke-width="5" stroke-miterlimit="10"/>
<path d="M57.5213 82.15C56.0145 78.4552 55.1836 74.3942 55.1836 70.1313C55.1836 56.6618 63.4829 45.2111 75.0493 40.9951" stroke="#00E5FF" stroke-width="5" stroke-miterlimit="10"/>
<path d="M69.4917 62.1407L66.0509 63.8261L62.7744 61.8402L62.9387 58.1688L66.3795 56.4834L69.656 58.4693L69.4917 62.1407Z" stroke="#00E5FF" stroke-miterlimit="10"/>
<path d="M66.8303 60.5259L66.1825 60.8451L65.5723 60.4695L65.6004 59.7841L66.2482 59.4648L66.8585 59.8404L66.8303 60.5259Z" stroke="#00E5FF" stroke-width="3" stroke-miterlimit="10"/>
<path d="M88.2681 48.5254L84.8273 50.2109L81.5508 48.225L81.7151 44.5536L85.1559 42.8682L88.4324 44.8541L88.2681 48.5254Z" stroke="#00E5FF" stroke-miterlimit="10"/>
<path d="M85.6255 46.9248L84.9589 47.2534L84.3252 46.8684L84.3581 46.1548L85.0246 45.8262L85.6583 46.2111L85.6255 46.9248Z" stroke="#00E5FF" stroke-width="3" stroke-miterlimit="10"/>
<path d="M106.106 62.6104L102.665 64.2959L99.3887 62.3099L99.553 58.6386L102.994 56.9531L106.27 58.939L106.106 62.6104Z" stroke="#00E5FF" stroke-miterlimit="10"/>
<path d="M103.463 61.0097L102.797 61.3384L102.163 60.9534L102.196 60.2398L102.863 59.9111L103.496 60.2961L103.463 61.0097Z" stroke="#00E5FF" stroke-width="3" stroke-miterlimit="10"/>
<path d="M106.106 83.7374L102.665 85.4228L99.3887 83.4369L99.553 79.7655L102.994 78.0801L106.27 80.066L106.106 83.7374Z" stroke="#00E5FF" stroke-miterlimit="10"/>
<path d="M103.505 82.1594L102.796 82.5069L102.12 82.0984L102.153 81.3425L102.862 80.9951L103.538 81.4036L103.505 82.1594Z" stroke="#00E5FF" stroke-width="3" stroke-miterlimit="10"/>
<path d="M87.7984 95.0049L84.3576 96.6904L81.0811 94.7045L81.2454 91.0331L84.6862 89.3477L87.9627 91.3336L87.7984 95.0049Z" stroke="#00E5FF" stroke-miterlimit="10"/>
<path d="M85.1558 93.4033L84.4892 93.7319L83.8555 93.3469L83.8883 92.6333L84.5549 92.3047L85.1886 92.6897L85.1558 93.4033Z" stroke="#00E5FF" stroke-width="3" stroke-miterlimit="10"/>
<path d="M69.4917 82.3292L66.0509 84.0146L62.7744 82.0287L62.9387 78.3573L66.3795 76.6719L69.656 78.6578L69.4917 82.3292Z" stroke="#00E5FF" stroke-miterlimit="10"/>
<path d="M66.9239 80.775L66.1776 81.1412L65.4688 80.7092L65.5063 79.9111L66.2527 79.5449L66.9615 79.9768L66.9239 80.775Z" stroke="#00E5FF" stroke-width="3" stroke-miterlimit="10"/>
<path d="M25.1414 35.5069C27.7339 35.5069 29.8356 30.4622 29.8356 24.2393C29.8356 18.0164 27.7339 12.9717 25.1414 12.9717C22.5489 12.9717 20.4473 18.0164 20.4473 24.2393C20.4473 30.4622 22.5489 35.5069 25.1414 35.5069Z" stroke="#00E5FF" stroke-width="2" stroke-miterlimit="10"/>
<path d="M23.9675 31.5166C25.7823 31.5166 27.2535 28.5739 27.2535 24.9439C27.2535 21.3138 25.7823 18.3711 23.9675 18.3711C22.1528 18.3711 20.6816 21.3138 20.6816 24.9439C20.6816 28.5739 22.1528 31.5166 23.9675 31.5166Z" stroke="#00E5FF" stroke-width="2" stroke-miterlimit="10"/>
<path d="M3.0785 31.0471C3.98588 31.0471 4.72145 29.8911 4.72145 28.465C4.72145 27.0389 3.98588 25.8828 3.0785 25.8828C2.17112 25.8828 1.43555 27.0389 1.43555 28.465C1.43555 29.8911 2.17112 31.0471 3.0785 31.0471Z" stroke="#00E5FF" stroke-width="2" stroke-miterlimit="10"/>
<path d="M2.37402 25.8823L2.84344 24.9434L22.5589 23.0654C22.5589 23.0654 23.9671 23.9387 23.9671 26.0842C23.9671 28.2297 22.5589 29.1687 22.5589 29.1687L4.14372 31.5161L3.07815 31.0466" stroke="#00E5FF" stroke-miterlimit="10"/>
<path d="M19.7666 23.0657V9.6338L34.295 8.51174V4.7277L38.0503 5.69484V3.69014C38.0503 3.69014 38.0503 1 41.8056 1C45.561 1 66.6893 1 66.6893 1C66.6893 1 70.44 1.93897 69.9706 6.6338H74.1953C74.1953 6.6338 81.9453 12.2676 76.6644 27.2911L76.5424 31.9859" stroke="#00E5FF" stroke-width="2" stroke-miterlimit="10"/>
<path d="M78.5088 14.6247L90.8591 13.9111C90.8591 13.9111 94.145 17.667 90.8591 19.5449L78.5088 20.2586" stroke="#00E5FF" stroke-miterlimit="10"/>
<path d="M85.6958 77.291C89.3253 77.291 92.2677 74.3483 92.2677 70.7183C92.2677 67.0882 89.3253 64.1455 85.6958 64.1455C82.0663 64.1455 79.124 67.0882 79.124 70.7183C79.124 74.3483 82.0663 77.291 85.6958 77.291Z" stroke="#00E5FF" stroke-width="2" stroke-miterlimit="10"/>
<path d="M19.7666 9.6336L30.305 14.3801L44.8803 13.9106L44.8568 9.21576H47.1523C47.1523 9.21576 45.7957 4.05144 49.551 3.58195C53.3063 3.11247 68.9285 2.50684 68.9285 2.50684" stroke="#00E5FF" stroke-width="2" stroke-miterlimit="10"/>
</svg>
