<svg width="128" height="106" viewBox="0 0 128 106" fill="none" xmlns="http://www.w3.org/2000/svg">
<path d="M110.964 7.17211C110.964 7.17211 106.096 6.35831 102.85 9.61352C99.6047 12.8687 97.5763 16.9377 97.5763 16.9377C97.5763 16.9377 95.9536 20.193 88.6514 16.9377C81.3492 13.6825 49.909 3.30654 49.909 3.30654C44.0266 1.71149 30.2051 6.4641 27.1909 14.6998L3.25586 96.487C3.25586 96.487 10.1524 102.591 10.9638 102.997C11.7751 103.404 32.0591 55.3899 33.2761 55.7968C34.4932 56.2037 111.167 46.0312 111.167 46.0312L123.946 11.648L110.964 7.17211ZM47.6778 45.8278C38.9394 45.8278 31.8563 38.7233 31.8563 29.9586C31.8563 21.1939 38.9394 14.0894 47.6778 14.0894C56.4161 14.0894 63.4993 21.1939 63.4993 29.9586C63.4993 38.7233 56.4161 45.8278 47.6778 45.8278Z" stroke="#00E5FF" stroke-width="5" stroke-miterlimit="10"/>
</svg>
