<svg width="121" height="120" viewBox="0 0 121 120" fill="none" xmlns="http://www.w3.org/2000/svg">
<g clip-path="url(#clip0_797_11476)">
<path d="M59.511 0.585938C58.925 1.14844 58.925 1.21875 58.925 5.22656C58.925 9 58.9719 9.35156 59.4172 9.9375C59.7922 10.4062 60.0969 10.5469 60.8 10.5469C61.5032 10.5469 61.8079 10.4062 62.1829 9.9375C62.6282 9.35156 62.675 9 62.675 5.22656C62.675 1.21875 62.675 1.14844 62.0891 0.585938C61.7375 0.210938 61.2454 0 60.8 0C60.3547 0 59.8625 0.210938 59.511 0.585938Z" fill="#15A02B"/>
<path d="M41.0187 10.3359C40.55 10.7109 40.4094 11.0156 40.4094 11.6953C40.4094 12.6562 40.175 12.3984 48.0734 19.5C48.8 20.1562 49.2687 20.3906 49.8547 20.3906C51.4484 20.3906 52.2453 18.4688 51.1437 17.2734C50.1359 16.2188 43.5734 10.3828 43.0578 10.125C42.3078 9.72656 41.7219 9.77344 41.0187 10.3359Z" fill="#15A02B"/>
<path d="M78.4953 10.1244C77.9797 10.429 70.7141 16.9447 70.2453 17.5306C69.3781 18.6087 70.3391 20.39 71.7687 20.39C72.5891 20.39 72.3781 20.554 77.8391 15.6322C81.05 12.7494 81.1906 12.5619 81.1906 11.7181C81.1906 10.265 79.7375 9.42123 78.4953 10.1244Z" fill="#15A02B"/>
<path d="M18.2609 15.0937C17.8625 15.2578 17.4172 15.5625 17.2766 15.75C17.1125 15.9375 16.175 18.2109 15.1906 20.7656C14.2063 23.3203 13.3156 25.5234 13.1984 25.6406C13.1047 25.7578 10.6203 25.9922 7.69063 26.1328L2.37032 26.4141L1.59688 27.2578C0.729697 28.1953 0.589072 29.0391 1.08126 30.1172C1.22188 30.4453 3.07345 32.0859 5.15938 33.75C7.22188 35.4375 9.07345 36.9375 9.21407 37.125C9.44845 37.3828 9.21407 38.4609 8.20626 42.2344C7.4797 44.8594 6.89376 47.3437 6.89376 47.7891C6.89376 48.9141 8.18282 50.1562 9.3547 50.1562C10.4094 50.1562 10.3625 50.1797 15.1438 47.0625C17.2766 45.6797 19.1516 44.5312 19.2688 44.5312C19.4094 44.5312 21.4484 45.7969 23.8156 47.3437C27.6125 49.8281 28.2219 50.1562 29.1125 50.1562C29.9328 50.1562 30.2609 50.0156 30.8 49.4766C31.175 49.1016 31.55 48.5391 31.6438 48.1875C31.7375 47.7891 31.3391 45.8906 30.4016 42.4219L28.9953 37.2891L32.6516 34.3594C34.6672 32.7656 36.6125 31.125 36.9875 30.75C38.2297 29.4375 37.7609 27.2812 36.1203 26.6016C35.6516 26.4141 33.7531 26.25 31.1516 26.1562C24.8234 25.9219 25.3859 26.1328 24.4719 23.7187C22.0344 17.25 21.3781 15.7266 20.8859 15.3984C20.0656 14.8828 19.0344 14.7422 18.2609 15.0937ZM20.8391 24.7266C21.5891 26.7187 22.4094 28.5 22.7375 28.8281C23.3469 29.4609 24.8703 29.6953 28.6906 29.7891C32.4172 29.8594 32.4172 29.7656 28.7844 32.6719C27.05 34.0781 25.5266 35.4141 25.4094 35.6484C24.9875 36.3984 25.175 37.5469 26.2063 41.2969C26.7688 43.3359 27.1906 45 27.1438 45C27.0969 45 25.5266 43.9922 23.6516 42.75C20.9328 40.9453 20.0422 40.4766 19.3625 40.4531C18.6125 40.4531 17.8859 40.8047 14.9797 42.7031C13.0578 43.9453 11.4641 44.9531 11.4172 44.9297C11.3938 44.8828 11.8391 43.1484 12.425 41.0156C12.9875 38.9062 13.4563 36.9844 13.4563 36.75C13.4563 35.8359 12.7766 35.0625 9.75313 32.6719C6.05001 29.7187 5.95626 29.9062 11.1594 29.6953C14.9563 29.5312 15.8 29.2734 16.3391 28.1719C16.5266 27.8203 17.2297 26.0391 17.9094 24.1875C18.5891 22.3594 19.2453 20.9297 19.3391 21.0234C19.4328 21.1406 20.1125 22.7812 20.8391 24.7266Z" fill="#15A02B"/>
<path d="M59.7453 15.0938C58.7375 15.5156 58.55 15.9141 56.5578 21.1406L54.8235 25.7578L54.0031 25.875C53.5578 25.9453 51.2844 26.0625 48.9641 26.1562C46.6438 26.25 44.4875 26.4141 44.1594 26.5312C43.2922 26.8594 42.5656 27.6328 42.4016 28.3828C42.0735 29.8594 42.5422 30.4219 46.8547 33.8672C49.0813 35.6719 50.9328 37.2656 50.9328 37.4062C50.9563 37.5703 50.3703 39.8672 49.6438 42.5391C48.1906 47.9297 48.1438 48.5625 49.3391 49.5469C49.8547 49.9922 50.3235 50.1562 51.0031 50.1562C51.8469 50.1562 52.55 49.7812 56.2766 47.3438C58.6438 45.7969 60.6828 44.5312 60.8235 44.5312C60.9641 44.5312 63.0031 45.7969 65.3469 47.3438C69.05 49.7812 69.7531 50.1562 70.5969 50.1562C71.2766 50.1562 71.7453 49.9922 72.2609 49.5469C73.4563 48.5625 73.4094 47.9297 71.9563 42.5391C71.2297 39.8672 70.6438 37.5703 70.6672 37.4062C70.6672 37.2656 72.5188 35.6719 74.7453 33.8906C79.0578 30.4453 79.5266 29.8594 79.1984 28.3828C79.0344 27.6328 78.3078 26.8594 77.4406 26.5312C77.1125 26.4141 74.9563 26.2266 72.6359 26.1562C70.3156 26.0625 68.0422 25.9453 67.5969 25.875L66.7766 25.7578L65.0422 21.1406C64.0813 18.6094 63.1203 16.2656 62.9328 15.9609C62.5813 15.4219 61.3625 14.7656 60.7531 14.7656C60.5891 14.7891 60.1203 14.9297 59.7453 15.0938ZM61.9485 23.6016C63.5891 27.9844 63.9641 28.7578 64.7375 29.1562C65.2063 29.3906 66.6594 29.5781 69.3313 29.7188C71.4875 29.8594 73.2922 30 73.3625 30.0469C73.4094 30.1172 72.0734 31.2656 70.3859 32.6016C67.3391 35.0156 66.6594 35.7891 66.6594 36.8438C66.6594 37.1484 67.0344 38.7656 67.4797 40.4297C67.9485 42.1172 68.4172 43.8281 68.5344 44.25C68.675 44.8125 68.6516 44.9531 68.4641 44.8359C68.3 44.7656 66.7297 43.7344 64.9485 42.5859C60.6828 39.8203 60.8938 39.8203 56.6516 42.5859C54.8703 43.7578 53.3 44.7656 53.136 44.8594C52.9485 44.9531 52.925 44.8125 53.0656 44.25C53.1828 43.8281 53.6516 42.1172 54.1203 40.4297C54.5656 38.7656 54.9406 37.1484 54.9406 36.8438C54.9406 35.7891 54.261 35.0156 51.2141 32.6016C49.5266 31.2656 48.1906 30.1172 48.2375 30.0469C48.3078 30 50.1125 29.8594 52.2688 29.7188C54.9406 29.5781 56.3938 29.3906 56.8625 29.1562C57.636 28.7578 58.011 27.9844 59.6516 23.6016C60.2141 22.1016 60.7297 20.8594 60.8 20.8594C60.8703 20.8594 61.386 22.1016 61.9485 23.6016Z" fill="#15A02B"/>
<path d="M101.652 14.9303C100.573 15.1413 100.034 16.0553 98.2063 20.9069C96.0266 26.5788 97.0109 25.9225 90.4953 26.1569C85.55 26.3444 84.8469 26.5319 84.1672 27.9147C83.7219 28.8756 83.8156 29.9538 84.4484 30.6334C84.6828 30.8678 86.6047 32.4616 88.7141 34.1725L92.5813 37.2897L91.1984 42.4225C89.6984 48.0006 89.675 48.3522 90.8 49.4772C91.3391 50.0163 91.6672 50.1569 92.4875 50.1569C93.3781 50.1569 93.9875 49.8288 97.7844 47.3444C100.152 45.7975 102.214 44.5319 102.355 44.5319C102.519 44.5319 103.386 45.0241 104.277 45.6334C111.636 50.5788 112.386 50.8834 113.909 49.36C114.495 48.7741 114.706 48.3522 114.706 47.7897C114.706 47.3444 114.12 44.86 113.417 42.235C112.691 39.6334 112.175 37.3834 112.245 37.2897C112.316 37.1725 114.144 35.6491 116.3 33.8913C118.48 32.1334 120.378 30.4459 120.519 30.1178C121.011 29.0397 120.847 28.1725 120.003 27.2584L119.23 26.3913L114.683 26.2038C112.175 26.0866 109.714 25.9225 109.222 25.8288L108.284 25.6647L106.409 20.7663C104.441 15.6803 104.113 15.1647 102.753 14.9303C102.425 14.86 101.933 14.86 101.652 14.9303ZM103.808 24.4928C104.534 26.4147 105.238 28.1959 105.355 28.4069C105.823 29.2741 106.878 29.5319 110.441 29.6959C115.644 29.9069 115.55 29.7194 111.847 32.6725C108.823 35.0631 108.144 35.8366 108.144 36.7506C108.144 36.985 108.613 38.9069 109.175 41.0163C109.761 43.1491 110.206 44.8834 110.183 44.9303C110.159 44.9538 108.566 43.9459 106.644 42.7038C103.761 40.8288 102.988 40.4538 102.284 40.4538C101.628 40.4772 100.667 40.9928 97.9719 42.7506C96.0734 43.9928 94.5031 45.0006 94.4563 45.0006C94.4094 45.0006 94.8313 43.3366 95.3938 41.2975C96.5422 37.1959 96.6359 36.1881 95.9797 35.3678C95.7453 35.0631 94.2219 33.7506 92.5813 32.4616C89.2063 29.7897 89.2063 29.86 92.9094 29.7897C96.7297 29.6959 98.2531 29.4616 98.8625 28.8288C99.1906 28.5006 100.011 26.7194 100.761 24.7272C102.097 21.1647 102.284 20.7663 102.402 20.9069C102.448 20.9538 103.081 22.5475 103.808 24.4928Z" fill="#15A02B"/>
<path d="M57.05 54.9842C54.5656 55.6405 52.3859 56.9061 50.3469 58.9452C47.3703 61.9217 46.1047 64.6405 45.8703 68.6952C45.6359 72.4452 46.5969 75.5389 48.9172 78.6796C49.5266 79.4764 50.5344 80.5311 51.1672 81.0233C51.8 81.5155 52.3391 81.9842 52.3391 82.0546C52.3625 82.1249 51.9172 82.3358 51.3781 82.4764C49.5734 83.0155 45.8234 85.1014 43.7375 86.7186C41.7453 88.2421 40.3391 89.6483 38.8625 91.4999L38.1359 92.4139L36.5891 90.8436C34.9016 89.1796 32.3938 87.4217 30.3313 86.4842C29.6281 86.1796 28.9953 85.8983 28.9484 85.8514C28.9016 85.828 29.3703 85.2421 30.0031 84.5389C34.3156 79.828 34.1984 72.8436 29.6984 68.3671C22.9719 61.6405 11.5344 65.3671 9.9172 74.8358C9.3547 78.2342 10.55 82.0311 12.9875 84.6327C13.6203 85.3124 14.1359 85.8749 14.0891 85.8983C14.0656 85.8983 13.4563 86.1796 12.7531 86.4842C7.99532 88.5702 3.89376 92.8124 1.73751 97.8749C0.729699 100.219 0.612512 102.633 1.43282 104.203C2.06564 105.375 3.21407 106.523 4.43282 107.18C5.37032 107.695 5.53439 107.695 19.2688 107.765L33.1438 107.836V110.25C33.1438 111.656 33.2844 113.109 33.4719 113.765C34.2688 116.39 36.4484 118.594 39.1672 119.508C40.5969 120 40.9719 120 60.7297 120C83.1125 120 82.2688 120.047 84.7063 118.383C86.2063 117.351 87.6125 115.453 88.1047 113.812C88.3156 113.109 88.4563 111.68 88.4563 110.25V107.836L102.355 107.765C116.066 107.695 116.23 107.695 117.167 107.18C118.386 106.523 119.534 105.375 120.167 104.203C120.987 102.633 120.87 100.219 119.862 97.8749C117.73 92.8358 113.417 88.3827 108.847 86.4608C108.144 86.1796 107.534 85.9217 107.511 85.8983C107.464 85.8749 107.98 85.3124 108.636 84.6092C111.027 82.0546 112.245 78.1639 111.659 74.7889C110.066 65.3671 98.6281 61.6405 91.9016 68.3671C87.4484 72.8202 87.2844 79.828 91.5266 84.4686C92.1828 85.1952 92.6984 85.828 92.6516 85.8514C92.6047 85.8983 91.9719 86.1796 91.2688 86.4842C89.2063 87.4217 86.6984 89.1796 85.0109 90.8436L83.4641 92.4139L82.7375 91.4999C81.2609 89.6483 79.8547 88.2421 77.8625 86.7186C75.7766 85.1014 72.0266 83.0155 70.2453 82.4764C69.6828 82.3358 69.2375 82.1249 69.2609 82.0546C69.2609 81.9842 69.8 81.5155 70.4328 81.0233C71.0656 80.5311 72.0734 79.4764 72.6828 78.6796C75.0031 75.5389 75.9641 72.4452 75.7297 68.6952C75.4953 64.6405 74.2531 61.9217 71.2531 58.9217C69.1906 56.8592 67.0813 55.6405 64.4328 54.9608C62.6984 54.5155 58.7844 54.5155 57.05 54.9842ZM64.8547 59.0389C67.7844 60.1874 70.5969 63.1171 71.4875 65.9296C72.7766 70.1014 71.7453 74.4139 68.6984 77.4374C64.2453 81.8905 57.3547 81.9139 52.925 77.4842C50.4875 75.0467 49.3859 72.1639 49.6203 68.7889C49.6906 67.7108 49.9484 66.328 50.2531 65.5546C51.3781 62.5546 54.2609 59.8358 57.3547 58.828C59.3469 58.1717 62.8859 58.2889 64.8547 59.0389ZM25.1516 69.6092C26.7688 70.4764 27.9406 71.6952 28.7375 73.3358C29.1828 74.2264 29.2766 74.8124 29.2766 76.6405C29.2766 78.6092 29.2063 79.0077 28.6203 80.1092C27.7766 81.703 26.4172 83.0155 24.7531 83.8358C22.8781 84.7499 20.2766 84.7499 18.3547 83.8592C16.5031 83.0155 15.2375 81.7733 14.3469 79.9686C12.9641 77.1796 13.4094 73.8046 15.4719 71.5077C17.3703 69.3749 19.1281 68.6249 21.8938 68.7421C23.3703 68.8124 23.9094 68.953 25.1516 69.6092ZM103.527 69.4686C105.237 70.2889 107.042 72.2577 107.581 73.8749C108.964 77.8592 107.136 82.0546 103.245 83.8592C101.323 84.7499 98.7219 84.7499 96.8469 83.8358C92.2063 81.5624 90.7297 75.8436 93.8 71.8358C94.6672 70.6874 96.5891 69.328 97.9484 68.9061C99.2844 68.4842 102.12 68.7655 103.527 69.4686ZM67.0578 85.4061C71.5344 86.6483 75.0266 88.7342 78.2844 92.1796C80.8391 94.8749 82.3859 97.4061 83.6281 101.015C84.5656 103.711 84.5656 103.711 84.6594 107.883C84.7297 111.398 84.6828 112.242 84.3547 113.109C83.9094 114.305 82.4094 115.687 81.2141 116.015C80.0891 116.32 41.5344 116.32 40.4094 116.015C39.2609 115.711 37.8547 114.469 37.3391 113.344C36.6594 111.867 36.7063 105.609 37.3859 102.89C39.5188 94.5233 46.0344 87.7499 54.1438 85.5233C57.0734 84.7264 57.9172 84.6327 61.5031 84.7264C64.2453 84.7967 65.3234 84.9139 67.0578 85.4061ZM25.1281 88.7342C28.8313 89.4842 33.4016 92.3202 35.3234 95.0858L35.9563 95.9999L35.1125 97.9217C34.6438 98.9764 34.0578 100.805 33.7766 101.953L33.2609 104.062H19.9016C7.24532 104.062 6.49532 104.039 5.81564 103.617C4.90157 103.078 4.45626 102 4.64376 100.898C4.87814 99.6561 6.75314 96.1405 7.90157 94.7108C9.77657 92.4608 12.7531 90.328 15.3313 89.3905C18.2141 88.3592 22.0344 88.1014 25.1281 88.7342ZM104.745 88.9452C108.027 89.8358 111.378 91.9921 113.605 94.6405C114.847 96.1171 116.698 99.6092 116.956 100.898C117.144 102 116.698 103.078 115.784 103.617C115.105 104.039 114.355 104.062 101.698 104.062H88.3391L87.8234 101.976C87.5656 100.828 86.9563 98.9999 86.4875 97.9452L85.6438 95.9999L86.2766 95.0858C88.1281 92.4139 92.6984 89.5077 96.3078 88.7342C98.3469 88.2889 102.73 88.3827 104.745 88.9452Z" fill="#15A02B"/>
</g>
<defs>
<clipPath id="clip0_797_11476">
<rect width="120" height="120" fill="white" transform="translate(0.799988)"/>
</clipPath>
</defs>
</svg>
