<svg width="121" height="120" viewBox="0 0 121 120" fill="none" xmlns="http://www.w3.org/2000/svg">
<path d="M52.6656 0.445312C50.6265 1.54688 50.3453 2.4375 50.3218 8.10938V12.5859L48.9859 12.8906C48.2359 13.0547 46.5484 13.5469 45.2124 13.9922C38.2281 16.2891 32.2515 19.9219 26.7203 25.1719C25.4078 26.4141 24.2593 27.4219 24.1656 27.4219C24.0718 27.4219 22.314 26.4609 20.2749 25.2891C18.2359 24.1172 16.2203 23.0625 15.7515 22.9453C14.7203 22.6641 13.314 23.0156 12.3765 23.7891C11.4156 24.6094 5.15775 35.4844 4.97025 36.7031C4.80619 37.6875 5.22807 39.0938 5.95463 39.8906C6.16557 40.125 8.11088 41.3438 10.2906 42.6094C13.6421 44.5312 14.2515 44.9531 14.1578 45.3516C14.0874 45.6094 13.7593 46.8516 13.4312 48.0938C11.5093 55.4766 11.5093 64.5234 13.4312 71.9062C13.7593 73.1484 14.0874 74.3906 14.1578 74.6484C14.2515 75.0469 13.6421 75.4688 10.2906 77.3906C8.11088 78.6562 6.16557 79.875 5.95463 80.1094C5.22807 80.9062 4.80619 82.3125 4.94682 83.2969C5.15775 84.4922 11.4156 95.3906 12.3765 96.1875C13.314 96.9844 14.7203 97.3359 15.7515 97.0547C16.2203 96.9375 18.2359 95.8828 20.2749 94.7109C22.314 93.5391 24.0718 92.5781 24.1656 92.5781C24.2828 92.5781 25.2906 93.4453 26.3921 94.5234C32.6968 100.594 39.6578 104.578 47.7906 106.781L50.3218 107.461V111.914C50.3453 117.586 50.6265 118.5 52.7124 119.555C53.5093 119.953 54.1656 120 60.3999 120C66.6343 120 67.2906 119.953 68.0874 119.555C70.1734 118.477 70.4546 117.609 70.4781 111.844C70.4781 108.117 70.5249 107.344 70.8062 107.344C70.9937 107.344 72.3999 106.992 73.9234 106.547C81.3999 104.391 88.1734 100.453 94.1031 94.8047C95.8843 93.1172 96.6109 92.5781 96.9156 92.6953C97.1265 92.7656 98.8609 93.7266 100.759 94.8281C102.658 95.9297 104.58 96.9375 105.025 97.0547C106.08 97.3359 107.462 96.9844 108.423 96.1875C109.22 95.5078 115.595 84.6328 115.83 83.5078C116.041 82.4297 115.548 80.8828 114.705 80.0391C114.283 79.6406 112.291 78.375 110.252 77.2266C107.111 75.4453 106.548 75.0469 106.642 74.6484C106.712 74.3906 107.041 73.1484 107.369 71.8828C108.119 69.0234 108.798 64.4531 108.587 63.6328C108.377 62.8125 107.205 62.2969 106.291 62.625C105.939 62.7656 105.564 62.9766 105.47 63.1172C105.4 63.2578 105.119 64.6406 104.884 66.1875C104.65 67.7578 104.134 70.3594 103.712 71.9766C103.033 74.6953 102.986 75.0469 103.267 75.9609C103.431 76.5 103.853 77.2266 104.181 77.5781C104.533 77.9062 106.525 79.1719 108.634 80.3672C111.541 82.0312 112.431 82.6641 112.314 82.9219C112.103 83.5078 106.525 93.1406 106.22 93.4688C106.009 93.7031 105.166 93.3281 102.002 91.5C98.7203 89.5781 97.8765 89.2031 96.8453 89.1094C95.2515 88.9688 94.7828 89.25 91.9234 92.0156C85.9234 97.8047 79.6421 101.344 71.5328 103.57C67.1265 104.766 66.9624 105.047 66.9624 111.258C66.9624 113.719 66.8921 115.898 66.8218 116.109C66.7046 116.438 65.9078 116.484 60.3999 116.484C54.8921 116.484 54.0953 116.438 53.9781 116.109C53.9078 115.898 53.8374 113.719 53.8374 111.258C53.8374 104.906 53.7906 104.836 48.6109 103.359C40.7124 101.086 34.5718 97.5703 28.8531 91.9922C26.064 89.2734 25.5718 88.9688 23.9546 89.1094C22.9703 89.2031 22.1031 89.6016 18.7984 91.5C15.6109 93.3281 14.7906 93.7266 14.5796 93.4688C14.2749 93.1406 8.72025 83.5078 8.48588 82.9219C8.36869 82.6641 9.25932 82.0312 12.1656 80.3672C14.2749 79.1719 16.2671 77.9062 16.6187 77.5781C16.9468 77.2266 17.3687 76.5 17.5328 75.9609C17.7906 75.0703 17.7437 74.6719 16.9703 71.5312C15.7749 66.5859 15.5406 64.875 15.5406 60C15.5406 55.1719 15.7515 53.4609 16.9703 48.4688C17.7437 45.3281 17.7906 44.9297 17.5328 44.0391C17.3687 43.5 16.9468 42.7734 16.6187 42.4219C16.2671 42.0938 14.2749 40.8281 12.1656 39.6328C9.25932 37.9688 8.36869 37.3359 8.48588 37.0781C8.72025 36.4922 14.2749 26.8594 14.5796 26.5312C14.7906 26.2734 15.6109 26.6719 18.7984 28.5C22.1031 30.3984 22.9703 30.7969 23.9546 30.8906C25.5484 31.0312 26.064 30.7266 28.7124 28.1484C34.6656 22.3359 41.0874 18.6562 49.2203 16.4531C52.1265 15.6562 52.7359 15.3047 53.3687 14.0625C53.7906 13.2422 53.8374 12.6797 53.8374 8.69531C53.8374 6.25781 53.9078 4.10156 53.9781 3.89062C54.0953 3.5625 54.8921 3.51562 60.3999 3.51562C65.9078 3.51562 66.7046 3.5625 66.8218 3.89062C66.8921 4.10156 66.9624 6.28125 66.9624 8.74219C66.9624 15.0703 67.0093 15.1641 72.1187 16.6172C73.8531 17.1328 76.3609 17.9766 77.6968 18.5156C79.8531 19.3828 80.1578 19.4531 80.7203 19.1719C81.4703 18.8203 81.8687 17.9062 81.6343 17.0156C81.5171 16.5 81.1421 16.2188 79.7828 15.5859C77.8609 14.6953 73.8296 13.3359 71.814 12.8906L70.4781 12.5859V8.10938C70.4546 2.41406 70.1734 1.52344 68.0874 0.445312C67.2906 0.046875 66.6343 0 60.3531 0C54.1421 0.0234375 53.4156 0.0703125 52.6656 0.445312Z" fill="#15A02B"/>
<path d="M86.0874 20.4141C85.6421 20.7656 85.4781 21.1172 85.4781 21.7031C85.4781 22.5703 85.4077 22.5 88.3609 24.8438C89.3687 25.6641 91.1031 27.2109 92.2281 28.2891C94.7359 30.7266 95.2515 31.0312 96.8452 30.8906C97.8765 30.7969 98.7202 30.4219 102.001 28.5C105.166 26.6719 106.009 26.2969 106.22 26.5312C106.525 26.8594 112.103 36.4922 112.314 37.0781C112.431 37.3359 111.541 37.9688 108.634 39.6328C106.525 40.8281 104.533 42.0938 104.181 42.4219C103.853 42.7734 103.431 43.5 103.267 44.0625C102.986 44.9766 103.009 45.3047 103.595 47.5547C104.416 50.8125 104.861 52.9453 105.048 54.9141C105.259 56.8828 105.798 57.6562 106.923 57.6562C107.908 57.6562 108.681 56.9062 108.681 55.9453C108.681 54.6562 107.955 50.3672 107.345 48.0938C107.041 46.8516 106.712 45.6094 106.642 45.3516C106.548 44.9531 107.111 44.5547 110.251 42.7734C112.291 41.625 114.283 40.3594 114.705 39.9609C115.548 39.1172 116.041 37.5703 115.83 36.4922C115.595 35.3672 109.22 24.4922 108.423 23.8125C107.486 23.0156 106.08 22.6641 105.048 22.9453C104.603 23.0625 102.564 24.1172 100.548 25.2891C98.5093 26.4609 96.7281 27.4219 96.6109 27.4219C96.4702 27.4219 95.7906 26.8359 95.0874 26.1094C92.2984 23.2734 87.9859 19.9219 87.1187 19.9219C86.9077 19.9219 86.439 20.1328 86.0874 20.4141Z" fill="#15A02B"/>
<path d="M57.0015 25.0785C44.8374 26.3676 34.4312 33.5863 29.0171 44.4613C24.0952 54.3051 24.1187 65.7426 29.0405 75.5863C39.0249 95.5316 64.5015 101.274 82.0796 87.5629C93.6109 78.5394 98.2984 62.8597 93.6343 48.891C89.978 37.8988 80.5093 28.9691 69.5405 26.1332C65.6265 25.1254 60.564 24.7035 57.0015 25.0785ZM58.5249 36.9144V45.2347H57.7515C55.5718 45.2347 49.3843 43.7347 47.439 42.7269C46.6655 42.3285 46.6655 42.3051 48.1187 39.1879C50.5093 34.0551 53.603 30.5863 57.0718 29.1566C57.7984 28.8519 58.4312 28.5941 58.478 28.5941C58.5015 28.5941 58.5249 32.3441 58.5249 36.9144ZM65.2046 29.8832C68.228 31.641 71.2749 35.6722 73.2905 40.5472C73.9702 42.1879 73.9937 42.3051 73.5952 42.6097C72.4234 43.4535 65.3218 45.2347 63.0484 45.2347H62.2749V36.9144V28.6176L63.2593 28.9691C63.7984 29.1566 64.689 29.5551 65.2046 29.8832ZM48.5874 31.5707C47.2984 33.2582 45.3296 36.6801 44.439 38.7894C44.0171 39.8207 43.6421 40.7113 43.6187 40.7582C43.5484 40.8519 40.3374 38.6254 39.3765 37.7816L38.6265 37.1254L39.8452 36.0941C41.6734 34.5004 44.5796 32.6254 46.9234 31.5004C48.0952 30.9379 49.1265 30.4691 49.2202 30.4691C49.3374 30.4691 49.0562 30.9613 48.5874 31.5707ZM73.6655 31.3832C75.9624 32.4613 78.939 34.3832 80.8374 35.9769L82.1968 37.1254L81.4234 37.7816C80.4624 38.6254 77.2515 40.8519 77.1812 40.7582C77.1577 40.7113 76.7827 39.8207 76.3609 38.7894C75.4702 36.6801 73.5015 33.2582 72.2124 31.5707C71.7437 30.9613 71.439 30.4691 71.5327 30.4691C71.6265 30.4691 72.5874 30.891 73.6655 31.3832ZM37.6655 40.8988C38.3687 41.4847 39.728 42.4691 40.6655 43.0785C42.3062 44.1097 42.3999 44.2035 42.2593 44.8832C42.189 45.2582 41.8609 46.8519 41.5562 48.3754C41.228 49.8988 40.853 52.641 40.689 54.4691C40.5484 56.2972 40.3843 57.9144 40.3374 58.0551C40.2671 58.2894 38.9312 58.3597 34.6187 58.3597H28.9937V57.2816C28.9937 54.4691 30.5874 48.9613 32.439 45.4691C33.5171 43.4066 35.9077 39.8441 36.2124 39.8441C36.3062 39.8441 36.9624 40.3129 37.6655 40.8988ZM86.0405 41.6488C87.8452 44.2269 89.2984 47.0863 90.2593 49.9222C91.103 52.4535 91.8062 55.8519 91.8062 57.4457V58.3597H86.1812C81.8687 58.3597 80.5327 58.2894 80.4624 58.0551C80.4155 57.9144 80.2515 56.2972 80.1109 54.4691C79.9468 52.641 79.5718 49.8988 79.2437 48.3754C78.939 46.8519 78.6109 45.2582 78.5405 44.8832C78.3999 44.2035 78.4937 44.1097 80.1343 43.0785C81.0718 42.4691 82.4312 41.5082 83.1343 40.9222C83.8374 40.3363 84.4937 39.8676 84.5874 39.8441C84.6812 39.8441 85.3374 40.6644 86.0405 41.6488ZM47.1812 46.4066C49.6421 47.4613 55.3609 48.7504 57.6577 48.7504H58.5249V53.5551V58.3597H51.2359H43.9234L44.0874 55.9457C44.3452 52.0082 45.4234 45.9379 45.8687 45.9379C45.9859 45.9379 46.5718 46.1488 47.1812 46.4066ZM75.4937 47.5082C76.0562 49.8988 76.5484 53.2269 76.7124 55.9457L76.8765 58.3597H69.564H62.2749V53.5551V48.7504H63.189C65.5327 48.7504 72.6109 47.0863 74.1812 46.1722C74.9312 45.7504 75.1187 45.9379 75.4937 47.5082ZM40.478 63.0004C40.478 64.8988 41.1577 70.0551 41.7671 72.7738C42.0952 74.1801 42.353 75.4691 42.353 75.6097C42.353 75.7504 41.5796 76.3363 40.6655 76.9457C39.728 77.5316 38.3687 78.516 37.6655 79.1019C36.9624 79.6879 36.3062 80.1566 36.2124 80.1566C35.9077 80.1566 33.5171 76.5941 32.439 74.5316C30.6343 71.1097 28.9937 65.5316 28.9937 62.8363V61.8754H34.7359H40.478V63.0004ZM58.5249 66.5629V71.2504H57.6577C55.3609 71.2504 49.6421 72.5394 47.1812 73.5941C46.5718 73.8519 45.9859 74.0629 45.8687 74.0629C45.4234 74.0629 44.3687 68.1332 44.0874 64.2191L43.9234 61.8754H51.2359H58.5249V66.5629ZM76.7124 64.2191C76.5249 66.891 76.0327 70.1722 75.4937 72.4926C75.189 73.7816 75.0249 74.0863 74.7202 73.9691C74.5093 73.8988 73.2437 73.4769 71.9077 73.0082C69.4937 72.1644 64.9234 71.2504 63.189 71.2504H62.2749V66.5629V61.8754H69.564H76.8765L76.7124 64.2191ZM91.8062 62.6722C91.8062 65.2269 90.2359 70.8754 88.6655 73.9926C87.8452 75.6566 85.1734 79.8051 84.7749 80.0394C84.6577 80.1097 83.6734 79.5004 82.5952 78.6566C81.4937 77.8363 80.1343 76.8754 79.5249 76.5238C78.939 76.1722 78.4468 75.7738 78.4468 75.6097C78.4468 75.4691 78.7046 74.1801 79.0327 72.7738C79.6421 70.0551 80.3218 64.8988 80.3218 63.0004V61.8754H86.064H91.8062V62.6722ZM58.5249 83.0863V91.3832L57.5405 91.0316C53.6265 89.6488 49.9702 85.4535 47.5093 79.4535C46.8296 77.8129 46.8062 77.6957 47.2046 77.391C48.3765 76.5472 55.0796 74.8363 57.5405 74.7894L58.5249 74.766V83.0863ZM66.0484 75.141C68.3687 75.5394 72.8921 76.8988 73.5952 77.391C73.9937 77.6957 73.9702 77.8129 73.2905 79.4535C70.8296 85.4535 67.1734 89.6488 63.2593 91.0316L62.2749 91.3832V83.0863V74.766H63.0484C63.4937 74.766 64.8296 74.9301 66.0484 75.141ZM44.439 81.1644C45.3062 83.2738 47.2749 86.6957 48.5405 88.3597C48.9859 88.9457 49.314 89.4379 49.2671 89.4847C49.2202 89.5316 48.2827 89.1566 47.1812 88.641C44.8374 87.5394 41.8609 85.641 39.9624 84.0238L38.603 82.8754L39.4702 82.1488C40.4546 81.3285 43.3609 79.2426 43.5249 79.2426C43.5952 79.2426 43.9937 80.1097 44.439 81.1644ZM78.9859 80.391C79.9234 81.0472 81.0249 81.8676 81.4234 82.2191L82.1968 82.8754L80.8374 84.0238C78.939 85.641 75.9624 87.5394 73.6187 88.641C72.5171 89.1566 71.5796 89.5316 71.5327 89.4847C71.4859 89.4613 72.0484 88.6176 72.7515 87.6566C73.9702 85.9926 77.0405 80.1801 77.0405 79.5238C77.0405 79.0551 77.1812 79.1254 78.9859 80.391Z" fill="#15A02B"/>
</svg>
