<svg width="32" height="32" viewBox="0 0 32 32" fill="none" xmlns="http://www.w3.org/2000/svg">
    <style>
        svg>rect {
            transition: all 300ms ease-linear;
        }
        svg:hover>rect {
            fill: #15A02B;
            transition: all 300ms ease-linear;
        }
    </style>
    <rect width="32" height="32" rx="4" fill="#059BD8"/>
    <g clip-path="url(#clip0_0_447)">
        <mask id="mask0_0_447" style="mask-type:luminance" maskUnits="userSpaceOnUse" x="4" y="5" width="23" height="22">
            <path d="M24.5738 9.51213C24.374 8.99918 24.1356 8.63187 23.7515 8.2478C23.3662 7.86245 23.0002 7.62402 22.4859 7.42554C22.098 7.27475 21.5154 7.09561 20.4432 7.04663C19.2832 6.99379 18.9352 6.98219 15.998 6.98219C13.0608 6.98219 12.7129 6.99379 11.5529 7.04663C10.4806 7.09561 9.89811 7.27475 9.51017 7.42554C8.99723 7.62531 8.62992 7.86374 8.24585 8.2478C7.8605 8.63316 7.62207 8.99918 7.42359 9.51213C7.2728 9.90006 7.09365 10.4826 7.04468 11.5549C6.99184 12.7148 6.98024 13.0628 6.98024 16C6.98024 18.9372 6.99184 19.2852 7.04468 20.4451C7.09365 21.5174 7.2728 22.0999 7.42359 22.4879C7.62335 23.0008 7.86178 23.3681 8.24585 23.7522C8.6312 24.1376 8.99723 24.3747 9.51017 24.5745C9.89811 24.7253 10.4806 24.9044 11.5529 24.9534C12.7129 25.0062 13.0608 25.0178 15.998 25.0178C18.9352 25.0178 19.2832 25.0062 20.4432 24.9534C21.5154 24.9044 22.098 24.7253 22.4859 24.5745C23.0002 24.3747 23.3662 24.1363 23.7515 23.7522C24.1356 23.3668 24.374 23.0008 24.5738 22.4879C24.7246 22.0999 24.9037 21.5174 24.9527 20.4451C25.0055 19.2852 25.0171 18.9372 25.0171 16C25.0171 13.0628 25.0055 12.7148 24.9527 11.5549C24.9037 10.4826 24.7246 9.90006 24.5738 9.51213ZM15.9993 21.6489C12.8791 21.6489 10.3505 19.1202 10.3505 16C10.3505 12.8798 12.8791 10.3511 15.9993 10.3511C19.1195 10.3511 21.6482 12.8798 21.6482 16C21.6482 19.1202 19.1195 21.6489 15.9993 21.6489ZM21.8712 11.4479C21.1417 11.4479 20.5514 10.8564 20.5514 10.1282C20.5514 9.4 21.143 8.80844 21.8712 8.80844C22.5993 8.80844 23.1909 9.39871 23.1909 10.1282C23.1909 10.8576 22.5993 11.4479 21.8712 11.4479ZM15.9993 12.3333C13.9746 12.3333 12.3327 13.9753 12.3327 16C12.3327 18.0247 13.9746 19.6667 15.9993 19.6667C18.0241 19.6667 19.666 18.0247 19.666 16C19.666 13.9753 18.0241 12.3333 15.9993 12.3333ZM26.9336 20.5353C26.8795 21.7056 26.6939 22.5059 26.4219 23.2057C26.141 23.9288 25.7647 24.5422 25.1525 25.1544C24.5403 25.7653 23.9281 26.1417 23.2038 26.4226C22.504 26.6946 21.7049 26.8801 20.5334 26.9343C19.3606 26.9871 18.9855 27 15.998 27C13.0106 27 12.6368 26.9871 11.4627 26.9343C10.2925 26.8801 9.49213 26.6946 8.79231 26.4226C8.06928 26.1417 7.45581 25.7653 6.84362 25.1544C6.23144 24.5422 5.85639 23.9288 5.57543 23.2057C5.3035 22.5059 5.11791 21.7069 5.06378 20.5353C5.01093 19.3625 4.99805 18.9875 4.99805 16C4.99805 13.0125 5.01093 12.6375 5.06378 11.4647C5.11662 10.2944 5.3035 9.49408 5.57543 8.79426C5.85639 8.07124 6.23273 7.45776 6.84362 6.84558C7.45581 6.23468 8.06799 5.85835 8.79231 5.57739C9.49213 5.30545 10.2912 5.11986 11.4627 5.06573C12.6355 5.0116 13.0106 5 15.998 5C18.9855 5 19.3606 5.01289 20.5334 5.06573C21.7036 5.11857 22.504 5.30545 23.2038 5.57739C23.9268 5.85835 24.5403 6.23468 25.1525 6.84558C25.7634 7.45776 26.1397 8.07124 26.4219 8.79426C26.6939 9.49408 26.8795 10.2931 26.9336 11.4647C26.9877 12.6375 26.9993 13.0125 26.9993 16C26.9993 18.9875 26.9864 19.3625 26.9336 20.5353Z" fill="white"/>
        </mask>
        <g mask="url(#mask0_0_447)">
            <rect x="4.70898" y="4.68652" width="22.5542" height="22.5542" fill="white"/>
        </g>
    </g>
    <defs>
        <clipPath id="clip0_0_447">
            <rect width="22" height="22" fill="white" transform="translate(5 5)"/>
        </clipPath>
    </defs>
</svg>
