<svg width="114" height="44" viewBox="0 0 114 44" fill="none" xmlns="http://www.w3.org/2000/svg">
<path fill-rule="evenodd" clip-rule="evenodd" d="M112.965 22.6523C113.372 22.9158 113.636 24.2108 113.68 24.6828C113.735 25.3193 113.757 26.1535 113.757 27.0205V27.5364C113.757 29.2705 113.68 30.9497 113.68 31.0814V31.1802V31.9594V33.8142V34.3081C113.68 34.7252 113.68 35.1752 113.68 35.6142V36.152V36.6898C113.68 37.1288 113.68 37.5678 113.68 37.9739C113.68 38.5665 113.669 39.1043 113.658 39.5653C113.658 39.9714 113.592 40.2677 113.482 40.6189C113.438 40.7616 113.383 40.9043 113.317 41.047C112.822 42.1555 111.888 43.0993 110.799 43.5493C110.436 43.703 109.985 43.8566 109.567 43.9115C108.919 43.9993 108.215 43.9444 107.533 43.9115H107.137H102.024C100.452 43.9115 98.7252 44.1091 97.1637 43.9115C96.8118 43.8676 96.4379 43.7359 96.108 43.6262C94.9424 43.2091 93.9088 42.1994 93.4139 41.047C93.381 40.9701 93.348 40.8823 93.315 40.8055C93.161 40.3884 93.1061 40.0153 93.0621 39.4994C93.0181 39.0056 92.9961 38.5007 92.9961 37.9848C92.9961 37.2934 92.9961 36.58 93.0181 35.8776V34.8349V26.5486H101.716V33.6716C101.716 34.5496 101.562 35.8117 101.859 36.4593C102.101 36.9971 102.849 37.5678 103.706 37.3593C104.278 37.2166 104.784 36.7227 104.938 36.1629C105.136 35.3947 105.015 34.3081 104.982 33.4081V33.0789V28.6668C104.982 28.0851 105.059 27.4376 104.982 26.8559C104.96 26.7132 104.872 26.4498 104.806 26.3181C104.443 25.6706 102.893 25.034 102.2 24.6498C101.518 24.2767 99.9677 23.267 99.165 22.7621L98.9781 22.6523H112.976H112.965Z" fill="#15A02B"/>
<path fill-rule="evenodd" clip-rule="evenodd" d="M33.1994 22.6523V33.8362C33.1994 34.5715 33.0675 35.5264 33.2324 36.1849C33.3974 36.8324 34.1011 37.491 35.0028 37.3812C35.5746 37.3044 36.0805 36.8654 36.2674 36.4044C36.5313 35.7569 36.3994 34.5935 36.3774 33.7045V33.474V26.5266H45.1524V35.4605C45.1524 35.9983 45.1744 36.5581 45.1854 37.1178V37.9629C45.1854 38.5117 45.1854 39.0495 45.1194 39.5543C45.0644 40.0592 44.9985 40.4433 44.8335 40.8604C44.8115 40.9153 44.7895 40.9701 44.7565 41.036C44.2507 42.1664 43.283 43.0993 42.1504 43.5823C41.8205 43.7249 41.4027 43.8676 41.0288 43.9115C40.446 43.9774 39.4453 43.9225 38.6096 43.9115H38.3017H32.4297C31.1541 43.9115 28.8449 44.0103 28.0422 43.8018C26.8876 43.4945 25.8429 42.6933 25.2491 41.8152C25.1392 41.6506 25.0292 41.453 24.9192 41.2555L24.8203 41.047C24.6223 40.597 24.4684 40.0921 24.4134 39.5763C24.3584 39.0604 24.3804 38.5117 24.4024 37.9848V37.6885V37.4032V22.6743H33.1775L33.1994 22.6523Z" fill="#15A02B"/>
<path fill-rule="evenodd" clip-rule="evenodd" d="M8.71021 22.6523L8.7322 34.2752V34.374C8.7322 34.5276 8.7322 34.8349 8.7432 35.1532V35.5044C8.76519 35.9105 8.77619 36.2727 8.80918 36.3386C9.06209 36.9971 9.99678 37.6775 10.9535 37.2824C11.4043 37.0958 11.7672 36.6678 11.8551 36.13C11.9981 35.2739 11.9211 34.2203 11.8991 33.2764V32.8813V22.6743H20.7072V34.6264C20.7072 35.7239 20.7401 36.8873 20.7292 37.9958C20.7292 38.4239 20.7072 38.8519 20.6742 39.258C20.6412 39.7189 20.6412 40.0372 20.5312 40.4214C20.4872 40.564 20.4432 40.7177 20.3883 40.8494L20.3003 41.0579C19.6845 42.4408 18.4529 43.5164 16.9134 43.8457C16.2097 43.9993 15.275 43.9444 14.4393 43.9225H14.0874H7.8415C6.58793 43.9225 5.07044 43.9225 3.98181 43.8896C3.46498 43.8676 2.33236 43.3079 1.77155 42.8359C1.3427 42.4737 0.880854 41.8701 0.561962 41.2774L0.441002 41.0579C0.243069 40.6518 0.111114 40.2677 0.100118 39.9824C0.100118 39.3238 0.078125 38.6543 0.078125 37.9958C0.078125 37.6227 0.078125 37.2385 0.078125 36.8763V36.3276V22.6743H8.71021V22.6523Z" fill="#15A02B"/>
<path fill-rule="evenodd" clip-rule="evenodd" d="M56.5885 22.6523V43.8896H48.957V41.025V37.9629L48.968 22.6523H56.5885Z" fill="#15A02B"/>
<path d="M89.1809 22.6523H80.5488V43.9005H89.1809V22.6523Z" fill="#15A02B"/>
<path fill-rule="evenodd" clip-rule="evenodd" d="M77.2177 22.6523V43.8896H69.5312V41.025L69.5422 22.6523H77.2177Z" fill="#15A02B"/>
<path fill-rule="evenodd" clip-rule="evenodd" d="M57.1497 22.6086L68.9597 22.6416C68.3879 26.4171 67.4752 32.4206 67.0243 35.779C66.9254 36.5034 66.8154 37.2277 66.7054 37.9521C66.5405 38.9728 66.3756 39.9935 66.2216 41.0142C66.1226 41.6508 66.0347 42.2654 65.9467 42.891L65.8257 43.8458H60.3166C60.1736 42.891 60.0307 41.9691 59.8987 41.0142C59.7558 39.9935 59.6128 38.9728 59.4589 37.9521C58.9091 34.0559 58.3703 30.1706 57.7325 26.2634C57.5785 25.2976 57.2926 23.5854 57.1387 22.5977L57.1497 22.6086Z" fill="#15A02B"/>
<path fill-rule="evenodd" clip-rule="evenodd" d="M6.39006 0.120794H6.91788H12.537C13.8675 0.120794 15.2421 0.0659177 16.4847 0.15372C17.3204 0.208597 18.332 0.713461 18.8818 1.16345C19.6846 1.84392 20.3993 2.84267 20.6193 4.09386C20.6632 4.33531 20.6522 4.51092 20.6522 4.7853C20.6852 6.33282 20.6852 7.94619 20.6852 9.53761V21.7421H11.8882V9.3181C11.8882 8.86811 11.9542 8.35227 11.8882 7.90229C11.8552 7.64985 11.6793 7.4523 11.5583 7.28767C11.2944 6.93646 10.8546 6.58525 10.2168 6.64013C9.48002 6.695 8.86423 7.27669 8.73227 7.94619C8.56733 8.75836 8.68829 10.6461 8.69928 10.8327L8.71028 21.7641H0.0342107V6.46452C0.0342107 5.7621 -0.0427633 5.01578 0.0342107 4.32434C0.0781958 3.92923 0.199155 3.51216 0.320114 3.17193C0.869928 1.66831 2.38742 0.31835 4.23479 0.13177C4.92756 0.0659177 5.66431 0.0988437 6.37907 0.13177L6.39006 0.120794Z" fill="#059BD8"/>
<path fill-rule="evenodd" clip-rule="evenodd" d="M30.6142 0.120717H31.1091H36.4752C37.9487 0.120717 39.4662 0.0987667 41.0057 0.120717C41.3246 0.120717 41.6875 0.263396 41.9844 0.373149C43.4139 0.888989 44.6235 2.16212 45.0304 3.69867C45.2613 4.55474 45.1953 5.74007 45.1733 6.81565V7.16686V14.7288H36.3983V9.84484C36.3983 9.07657 36.4972 8.06684 36.2553 7.52905C36.0354 7.05711 35.4526 6.58517 34.7378 6.62907C34.21 6.662 33.6822 7.00223 33.4733 7.35344C33.3633 7.52905 33.2533 7.81441 33.2203 8.04489C33.1654 8.50585 33.1984 9.01071 33.2203 9.49363V9.85581V21.753H24.4453V8.37415C24.4453 7.09004 24.4563 5.80593 24.4453 4.46694C24.4453 4.06085 24.6103 3.63282 24.7312 3.27063C25.281 1.74506 26.7765 0.307298 28.6459 0.120717C29.2837 0.0548655 29.9654 0.0987667 30.6252 0.120717H30.6142Z" fill="#059BD8"/>
<path fill-rule="evenodd" clip-rule="evenodd" d="M60.4262 0C61.163 6.60714 62.3286 13.0716 63.0653 19.6787C64.022 13.9935 64.6928 8.19856 65.4955 2.45847L65.8474 0H77.4595V21.9506H69.7621V18.0983C69.7621 18.0983 69.4872 19.9092 69.2123 21.7201L69.1793 21.9506L57.1383 21.9177C56.9844 20.9299 56.7645 19.4043 56.6215 18.3178L56.5665 17.9337V21.9616H48.8691L48.8911 0.0109753H60.4262V0Z" fill="#059BD8"/>
<path fill-rule="evenodd" clip-rule="evenodd" d="M97.2739 0.130859H109.315H109.491H113.691V8.13186H105.752C104.861 8.13186 103.696 7.96723 102.893 8.16478C102.607 8.24161 102.255 8.46112 102.09 8.66965C101.936 8.85623 101.76 9.19646 101.727 9.45987C101.606 10.4476 101.727 11.5342 101.727 12.533C101.727 13.0707 101.65 13.6634 101.727 14.2012C101.892 15.4085 103.399 15.8804 104.301 16.3743C105.829 17.2084 107.336 18.1743 108.864 19.0194C109.887 19.5901 111.723 20.7205 112.746 21.5656L112.966 21.7522H98.8684C97.4169 20.9949 94.3269 19.4474 93.6012 18.1743C93.3593 17.7572 93.0513 17.1975 93.0623 16.6597C93.0623 16.2097 93.0623 15.628 93.0623 15.0353V14.3658C93.0623 13.6963 93.0623 13.0488 93.0623 12.5659V12.2695C93.0623 12.2695 93.0623 12.1817 93.0623 12.1488V11.7647C93.0623 11.7647 93.0623 11.7427 93.0623 11.7318V11.5891C93.0623 11.3037 93.0623 10.733 93.0623 10.0196V8.74647C93.0623 7.1331 93.0514 5.34413 93.0074 4.59781C92.9744 4.06002 93.1833 3.51125 93.3702 3.08322C93.9421 1.72228 95.5695 0.295489 97.021 0.163785H97.2079H97.2189C97.2189 0.163785 97.2409 0.163785 97.2519 0.163785L97.2739 0.130859Z" fill="#059BD8"/>
<path d="M89.1809 0.130859H80.5488V21.7632H89.1809V0.130859Z" fill="#059BD8"/>
</svg>
