<svg width="121" height="120" viewBox="0 0 121 120" fill="none" xmlns="http://www.w3.org/2000/svg">
<path d="M59.2859 0.328125C57.2469 1.45312 58.1141 4.6875 60.4344 4.6875C61.6297 4.6875 62.7781 3.53906 62.7781 2.36719C62.7781 0.609375 60.8328 -0.539062 59.2859 0.328125Z" fill="#15A02B"/>
<path d="M46.2781 2.3434C35.1219 5.99965 25.6531 14.32 20.4734 24.9606C15.8562 34.4528 14.7078 45.234 17.2625 55.3122C19.2547 63.0934 22.7937 69.5387 28.3016 75.2809C29.4734 76.4997 30.4344 77.5778 30.4344 77.6481C30.4344 77.7184 27.2234 83.4372 23.2859 90.3747C19.3484 97.3122 16.1375 103.242 16.1375 103.547C16.1375 104.414 16.7703 105.375 17.5437 105.703C18.2234 105.984 19.0906 105.843 26.5906 104.297C31.1609 103.359 34.9344 102.632 34.9812 102.679C35.0281 102.726 36.2937 106.195 37.7703 110.39C40.9578 119.414 40.8875 119.25 41.7078 119.672C42.7625 120.211 43.5359 120.07 44.3562 119.226C44.7547 118.828 48.5281 112.429 52.7 105.07C56.8953 97.6872 60.3641 91.6403 60.4344 91.6403C60.5047 91.6403 63.9734 97.6872 68.1688 105.07C72.3406 112.429 76.1141 118.828 76.5125 119.25C77.3328 120.07 78.1063 120.211 79.1609 119.672C79.9813 119.25 79.9109 119.414 83.0984 110.39C84.575 106.195 85.8406 102.726 85.8875 102.679C85.9344 102.632 89.7078 103.359 94.2781 104.297C101.778 105.843 102.645 105.984 103.325 105.703C104.098 105.375 104.731 104.414 104.731 103.523C104.731 103.218 101.52 97.3122 97.5828 90.3747C93.6453 83.4606 90.4344 77.7184 90.4344 77.6247C90.4344 77.5309 90.9734 76.9215 91.6297 76.2887C98.7078 69.4215 103.442 59.7184 104.614 49.6872C106.841 30.82 96.9031 12.7262 79.7703 4.45277C76.6531 2.95277 72.1531 1.4059 70.8406 1.4059C68.9891 1.4059 67.8641 3.89027 69.1766 5.1559C69.4813 5.43715 71.0281 6.11684 72.7391 6.67934C81.0125 9.39809 87.7859 14.3434 92.8953 21.445C94.7469 23.9997 97.4188 29.32 98.3563 32.3434C102.036 44.0153 100.255 56.695 93.5281 66.6793C86.9188 76.4997 76.3953 82.8512 64.6063 84.1168C48.2469 85.8981 32.2391 77.1325 24.8094 62.3434C20.1922 53.1559 19.3719 42.3278 22.5125 32.3434C23.45 29.32 26.0984 24.0231 28.0203 21.3278C30.0594 18.4684 34.3719 14.1559 37.2312 12.1168C39.9969 10.1715 45.2469 7.54652 48.3641 6.56215C51.2703 5.67152 51.6453 5.48402 51.9734 4.75746C52.4422 3.74965 52.2781 2.83559 51.5516 2.08559C50.6141 1.17152 49.7234 1.19496 46.2781 2.3434ZM36.3172 81.9372C41.45 85.3122 49.0672 88.0778 54.9969 88.734C55.7938 88.8278 56.4266 88.9684 56.4031 89.0622C56.1219 89.695 43.4422 111.797 43.3484 111.797C43.2781 111.797 42.4344 109.547 41.4734 106.804C38.5203 98.3668 38.45 98.2262 37.5594 97.7809C36.7859 97.4293 36.5516 97.4528 30.0359 98.8356C26.3094 99.609 23.2625 100.218 23.2156 100.172C23.1219 100.101 34.1375 80.6247 34.2781 80.6247C34.3016 80.6247 35.2156 81.2106 36.3172 81.9372ZM92.2859 90.5153C95.2625 95.7653 97.7 100.101 97.7 100.148C97.7 100.195 94.6297 99.5856 90.9031 98.8122C84.3172 97.4528 84.0828 97.4293 83.3094 97.7809C82.4188 98.2262 82.3484 98.3668 79.3953 106.804C78.4344 109.547 77.5906 111.797 77.5203 111.797C77.4266 111.797 64.7234 89.695 64.4656 89.0622C64.4422 88.9684 65.075 88.8278 65.8719 88.734C71.7781 88.0778 78.8797 85.5231 84.3406 82.0778C85.5594 81.3043 86.6375 80.7418 86.7313 80.8122C86.8016 80.9059 89.3094 85.2653 92.2859 90.5153Z" fill="#15A02B"/>
<path d="M56.2156 9.60938C47.3796 10.8281 39.9265 14.7891 33.9968 21.4688C30.0359 25.875 27.2937 31.4297 25.9578 37.7344C25.1843 41.2734 25.1843 47.7891 25.9578 51.3281C27.6453 59.2031 31.2546 65.4609 37.2312 70.8516C41.6609 74.8594 47.3093 77.6719 53.6375 79.0078C57.1765 79.7812 63.6921 79.7812 67.2312 79.0078C81.4343 75.9844 91.8875 65.5313 94.9109 51.3281C95.3562 49.2891 95.45 48.1406 95.45 44.5313C95.45 40.9219 95.3562 39.7734 94.9109 37.7344C91.8875 23.5547 81.3875 13.0313 67.3484 10.0781C64.6765 9.51563 58.7 9.25782 56.2156 9.60938ZM66.7625 14.7422C72.8093 16.125 77.4031 18.6328 81.7859 22.9688C86.2859 27.3984 88.9812 32.3672 90.3406 38.6719C90.9265 41.4375 90.95 47.6016 90.3406 50.3438C88.9812 56.6719 86.2625 61.6641 81.7859 66.0938C77.3328 70.5234 72.5281 73.1016 66.2937 74.4375C63.5281 75.0234 57.364 75.0469 54.6218 74.4375C48.2937 73.0781 43.3015 70.3594 38.8718 65.8828C34.4421 61.4063 31.8875 56.6484 30.5281 50.3906C29.9187 47.6016 29.9187 41.4609 30.5281 38.6953C31.8875 32.3906 34.4187 27.6797 38.8718 23.1797C43.7 18.2813 49.7234 15.2578 56.4734 14.2969C58.7937 13.9688 64.4421 14.2031 66.7625 14.7422Z" fill="#15A02B"/>
<path d="M59.3094 22.102C58.911 22.2895 57.9031 24.0473 55.7235 28.4067C54.0594 31.7348 52.6766 34.4536 52.6297 34.4536C50.1219 34.7114 39.2469 36.5864 38.9656 36.8207C38.3797 37.2895 37.9344 38.5082 38.0985 39.1645C38.1688 39.4692 40.3719 41.8832 43.0203 44.5551L47.8016 49.3598L46.7235 55.7817C46.1375 59.2973 45.7156 62.4848 45.786 62.8364C45.8563 63.1645 46.1844 63.7036 46.5125 64.0082C47.6141 65.0395 48.3172 64.8051 54.5047 61.5707C57.6219 59.9301 60.2938 58.5942 60.4578 58.5942C60.5985 58.5942 63.2703 59.9301 66.3875 61.5707C72.5516 64.8286 73.2547 65.0395 74.3563 64.0082C74.6844 63.7036 75.0125 63.1879 75.0828 62.8364C75.1531 62.5082 74.7313 59.3207 74.1453 55.7817L73.0672 49.3598L77.9188 44.5082C82.3016 40.1254 82.7469 39.6098 82.7703 38.8598C82.7938 37.8989 82.2078 36.8676 81.4344 36.5629C81.1531 36.4692 78.3406 35.977 75.1766 35.5317C72.0359 35.0629 69.1531 34.6176 68.8016 34.5473C68.2156 34.4301 67.8641 33.8207 65.1453 28.3832C62.7313 23.602 62.0047 22.3129 61.5125 22.0786C60.7391 21.727 60.036 21.7504 59.3094 22.102ZM62.7078 33.8676C64.0203 36.4457 65.0985 38.3207 65.4031 38.5317C65.7078 38.7192 67.8406 39.1411 70.1609 39.4926C72.4813 39.8207 74.6375 40.1723 74.9188 40.2661C75.4344 40.4301 75.1766 40.7348 71.9656 43.852C69.9969 45.7504 68.3797 47.5082 68.286 47.8364C68.2156 48.1411 68.4969 50.5317 68.9422 53.1567C69.3875 55.7582 69.6922 57.8911 69.6219 57.8911C69.575 57.8911 67.5828 56.8832 65.2156 55.6645C62.825 54.4457 60.6922 53.4379 60.4578 53.4379C60.2235 53.4379 58.0672 54.4457 55.6766 55.6645C53.3094 56.8832 51.2938 57.8911 51.2469 57.8911C51.1766 57.8911 51.4813 55.7582 51.9266 53.1567C52.3719 50.5317 52.6531 48.1411 52.5828 47.8129C52.4891 47.4848 50.9188 45.7739 48.8797 43.8051C45.3875 40.4301 45.3406 40.3598 46.0203 40.2426C46.4188 40.1489 48.575 39.8207 50.825 39.4692C53.075 39.1411 55.161 38.7192 55.4656 38.5317C55.7703 38.3207 56.8485 36.4692 58.161 33.8676C59.3328 31.477 60.3641 29.5317 60.4344 29.5317C60.5047 29.5317 61.536 31.477 62.7078 33.8676Z" fill="#15A02B"/>
</svg>
