<svg width="120" height="120" viewBox="0 0 120 120" fill="none" xmlns="http://www.w3.org/2000/svg">
<path d="M72.0234 4.80469C69.8203 5.90625 68.9063 7.82812 68.9063 11.2734V13.0781L67.7344 13.3359C66 13.7109 64.875 14.3672 63.6797 15.7031C59.9531 19.8281 62.1563 26.25 67.7344 27.4453L68.9063 27.7031V32.1328V36.5625H76.1485H83.3906L83.4844 34.125C83.5313 32.0859 83.625 31.5703 84.0469 31.0078C85.6172 28.8984 88.711 28.9688 90.0469 31.1484C90.4453 31.7578 90.5625 32.4375 90.6563 34.2422L90.7735 36.5625H95.5781C98.4844 36.5625 100.734 36.4688 101.273 36.3047C102.563 35.9062 103.805 34.7812 104.438 33.4219L105 32.2266V20.3906V8.55469L104.438 7.35938C103.805 6 102.563 4.875 101.273 4.47656C100.641 4.28906 96.2813 4.21875 86.7891 4.21875H73.2188L72.0234 4.80469ZM100.711 8.29688L101.367 8.85938V20.3906V31.9219L100.711 32.4844C100.102 33.0234 99.8906 33.0469 97.1719 33.0469H94.2656L94.125 32.0391C93.7735 29.6484 92.1094 27.4453 89.8828 26.4375C88.125 25.6406 85.6406 25.6875 83.8594 26.5547C81.7735 27.5859 80.2735 29.625 79.9453 31.8516L79.8047 32.9297L76.2422 33L72.6563 33.0703L72.6094 28.5469L72.5391 24.0234L70.0547 23.9062C67.2422 23.7656 66.6094 23.4844 65.8594 22.0312C65.25 20.8359 65.2734 19.8047 65.9297 18.6562C66.7266 17.25 67.6641 16.875 70.3594 16.875H72.6563V12.9844C72.6563 8.92969 72.7734 8.32031 73.6641 7.96875C73.9453 7.85156 79.9922 7.75781 87.1172 7.75781L100.055 7.73438L100.711 8.29688Z" fill="#15A02B"/>
<path d="M45.4688 15.2569C43.1016 15.5382 39.4922 16.4757 36.9141 17.5069C32.2266 19.3585 28.4531 21.9366 24.7031 25.8272C20.0625 30.6554 17.0859 36.2804 15.6563 42.9601C14.9766 46.1476 14.9297 52.6632 15.5391 56.0148C16.3828 60.5382 18.375 65.3429 21.0469 69.3272C22.9219 72.1632 25.9219 75.1866 30.5859 79.0069L34.6875 82.3585V84.8898V87.3976L34.0313 87.7491C30.1641 89.7413 30.4219 95.6007 34.4297 97.2648C34.9922 97.4991 35.1328 97.6632 35.0391 97.9913C34.7109 98.9757 34.8984 100.991 35.3672 101.905C35.8594 102.89 37.5938 104.53 38.1328 104.53C38.2969 104.53 38.4844 104.812 38.5781 105.163C39.2578 108.304 40.4531 110.53 42.4219 112.359C49.5234 118.921 60.8672 115.499 63.2109 106.054C63.4922 104.882 63.6797 104.53 64.0781 104.437C64.8047 104.249 66.1641 102.866 66.6797 101.812C67.125 100.851 67.2656 99.2101 66.9844 98.1788C66.8203 97.6632 66.9141 97.546 67.6172 97.2882C68.6953 96.9132 70.1719 95.1788 70.5469 93.8663C71.1797 91.6163 70.2188 89.0851 68.2969 87.9132L67.2891 87.3038L67.2656 84.8429V82.3819L71.2031 79.171C73.3594 77.4132 75.9375 75.1398 76.9453 74.1319C83.4141 67.6163 86.9297 59.0851 86.9531 49.8507V47.3429H81.586H76.2422L76.1016 46.2882C75.7969 44.1788 74.2266 41.9991 72.2578 41.0147C70.7344 40.2413 68.25 40.1007 66.5156 40.6866C64.1719 41.4601 61.875 44.4132 61.875 46.6866V47.3429H58.2422H54.6094V42.8897V38.4366H52.4766C49.9922 38.4366 49.0547 38.0851 48.0938 36.8429C47.2031 35.671 47.2266 33.9132 48.1406 32.6944C49.0547 31.4991 49.9688 31.171 52.5 31.171H54.6094V23.0851V14.9991L50.9297 15.0226C48.8906 15.046 46.4297 15.1397 45.4688 15.2569ZM50.9766 23.0616V27.4913L49.6875 27.7491C47.1328 28.2647 45.1875 29.9054 44.2969 32.296C42.7031 36.5382 45.4219 41.1319 49.9922 41.9054L50.9766 42.0929L51.0469 44.7179L51.1172 47.3429H47.5078H43.8984L43.6172 45.9835C43.1484 43.546 41.1563 41.3194 38.7188 40.5226C37.5234 40.1241 34.5234 40.3585 33.3984 40.9444C31.4063 41.9757 29.8594 44.0851 29.5547 46.1476L29.4141 47.2257L24.0703 47.296L18.75 47.3429V46.7804C18.75 46.4522 18.9609 45.1397 19.1953 43.8741C21.8203 30.3272 32.9531 20.1788 46.7578 18.7726C47.7891 18.6554 49.1719 18.5851 49.8047 18.6085L50.9766 18.6319V23.0616ZM38.625 44.4601C39.7969 45.3272 40.1484 46.2647 40.2656 48.7726L40.3828 51.0929H45.7266H51.0938V54.5851V58.0773L50.1094 58.2413C47.7656 58.6163 45.6797 60.1163 44.5781 62.2023C44.0391 63.2335 43.9453 63.6788 43.9453 65.3898C43.9453 67.1007 44.0391 67.546 44.5781 68.5538C45.7266 70.7335 47.6953 72.1397 50.1094 72.5382L51.0938 72.7022V79.8273V86.9523H44.7656H38.4375V83.8351V80.7413L33.8203 76.9913C27.1641 71.5772 25.2188 69.4913 22.6641 65.1085C20.6484 61.5929 19.0781 56.7179 18.8203 53.0382L18.6797 51.0929L25.8047 51.046L32.9297 50.9757L33.0469 48.5147C33.1875 45.7491 33.5391 44.9288 34.9688 44.2022C35.9531 43.7101 37.7813 43.8272 38.625 44.4601ZM70.9688 44.4601C72.3047 45.4444 72.5156 46.0069 72.6094 48.6319L72.7031 51.0929H78.0703H83.4141L83.2969 52.3116C82.5938 59.2023 80.1563 64.9913 75.7266 70.2179C74.4141 71.7882 73.3359 72.7491 66.2813 78.5851L63.5156 80.8819V83.9054V86.9523H59.0625H54.6094V77.9288V68.9054H52.3125C49.5469 68.9054 48.6797 68.5304 47.8828 67.0304C47.2266 65.7882 47.2031 65.1085 47.8125 63.8898C48.6094 62.2726 49.1953 61.9913 52.1016 61.921L54.6094 61.8273V56.4601V51.0929H60H65.3906V48.9366C65.3906 46.3351 65.8594 45.1397 67.1953 44.3429C68.2734 43.6866 70.0078 43.7569 70.9688 44.4601ZM66.5625 91.171C67.2656 91.8741 67.1953 93.1163 66.4219 93.7257C65.8125 94.2179 65.625 94.2179 50.9297 94.2179H36.0703L35.5078 93.6319C34.7813 92.9288 34.7344 91.8273 35.3906 91.171C35.8594 90.7023 36.1641 90.7023 50.9766 90.7023C65.7891 90.7023 66.0938 90.7023 66.5625 91.171ZM62.5547 98.0851C63.9141 98.7882 63.8438 100.452 62.4141 101.202C61.6641 101.624 40.4297 101.601 39.6094 101.179C38.6953 100.71 38.2969 99.8194 38.6484 98.9757C38.8125 98.5773 39.1641 98.1554 39.4453 98.0148C39.7734 97.8507 43.7578 97.7569 50.9297 97.7569C60.1172 97.7335 62.0156 97.7804 62.5547 98.0851ZM59.7656 105.28C59.7656 106.03 58.2656 108.609 57.3047 109.546C53.8125 112.944 48.5391 113.038 45 109.757C43.7344 108.585 42.75 107.038 42.3047 105.515L42.1641 104.999H50.9531C57.8438 104.999 59.7656 105.069 59.7656 105.28Z" fill="#15A02B"/>
</svg>
