<svg width="121" height="120" viewBox="0 0 121 120" fill="none" xmlns="http://www.w3.org/2000/svg">
<g clip-path="url(#clip0_797_11447)">
<path d="M58.8187 0.796001L58.0219 1.59288V7.47569C58.0219 13.8976 58.1156 14.4132 59.3109 14.9523C60.4359 15.4679 61.4906 15.2101 62.2875 14.2023C62.6625 13.7569 62.7094 13.0538 62.7094 7.80381C62.7094 1.42881 62.639 0.913189 61.514 0.327251C60.4594 -0.211811 59.6859 -0.0711861 58.8187 0.796001Z" fill="#15A02B"/>
<path d="M20.4984 1.38281C19.9594 1.92188 19.8187 2.27344 19.8187 3.07031C19.8187 4.07812 19.8656 4.125 24.6937 8.95312L29.5687 13.8281H30.6469C31.8187 13.8281 32.8031 13.1016 32.9906 12.1172C33.225 10.8516 32.7328 10.1953 27.9515 5.4375C23.2406 0.773438 23.1469 0.703125 22.1859 0.703125C21.389 0.703125 21.0375 0.84375 20.4984 1.38281Z" fill="#15A02B"/>
<path d="M97.0219 1.38281C96.5297 1.75781 94.2328 3.9375 91.9594 6.25781C87.9281 10.3359 87.7875 10.5234 87.7875 11.4375C87.7875 12.1172 87.9515 12.5859 88.3969 13.1016C88.9125 13.7109 89.1703 13.8281 90.0844 13.8281H91.1625L96.0375 8.95312C100.866 4.125 100.912 4.07812 100.912 3.07031C100.912 2.27344 100.772 1.92188 100.233 1.38281C99.3187 0.46875 98.2406 0.46875 97.0219 1.38281Z" fill="#15A02B"/>
<path d="M51.0609 19.5463C50.5453 19.7104 49.7719 20.0854 49.3969 20.3666C48.7406 20.8119 48.5765 20.8354 47.475 20.601C43.7953 19.8041 39.6703 22.1244 38.3344 25.7338C37.9359 26.7885 37.8422 27.4682 37.9125 28.9916L37.9828 30.89L37.1625 31.1479C35.8969 31.5229 34.139 32.765 33.3656 33.8432C32.0297 35.6713 31.6781 36.726 31.6781 39.0697V41.2025L30.4359 41.7182C28.7484 42.4213 27.0844 43.9682 26.264 45.6322C25.6312 46.851 25.5609 47.226 25.5609 49.2182C25.5609 51.1635 25.6312 51.5854 26.1937 52.64L26.8031 53.8588L25.8422 54.2807C24.3656 54.9369 22.5375 56.9057 21.9047 58.5229C21.1312 60.5385 21.1781 62.9525 22.0219 64.8041C22.3734 65.5775 22.9828 66.5619 23.4047 66.9838L24.1312 67.7338L20.2875 71.6244C16.9125 74.976 16.35 75.4682 15.8344 75.3744C13.1625 74.7885 12.7172 74.7416 11.4281 75.0229C9.27185 75.4682 8.38123 76.0541 5.14685 79.3119C1.37341 83.1088 0.951538 83.8354 0.951538 86.8354C0.951538 89.9291 1.39685 90.7025 5.59216 94.851C8.84998 98.1088 8.9906 98.2025 9.95154 98.2025C11.2875 98.2025 12.3187 97.2416 12.3187 95.976C12.3187 95.1791 12.0609 94.8275 9.06091 91.7572C4.39685 86.9994 4.39685 86.8354 8.66248 82.5463L11.5219 79.6869H12.7172C13.7719 79.6869 14.0765 79.8041 15.0609 80.601C15.6703 81.0932 21.7406 87.0932 28.5609 93.9135C37.889 103.265 40.9828 106.523 41.1469 107.109C41.5687 108.609 41.1469 109.359 38.1703 112.312C35.1469 115.288 34.3969 115.687 32.8734 115.054C32.475 114.89 30.6937 113.343 28.9359 111.632C26.0062 108.773 25.6547 108.515 24.8578 108.515C23.5922 108.515 22.6312 109.546 22.6312 110.906C22.6312 111.89 22.7015 111.984 26.1 115.335C30.2484 119.437 30.9515 119.859 33.8812 119.859C36.8812 119.882 38.1 119.203 41.7797 115.499C45.2953 111.937 45.9515 110.765 45.9281 108.046C45.9281 106.828 45.764 105.89 45.4125 104.999L44.8969 103.71L49.3969 99.2104C52.35 96.2338 54.1781 94.5932 54.6703 94.4291C55.1859 94.265 57.3187 94.2182 60.9984 94.3119L66.5766 94.4525L71.3344 99.2104L76.0922 103.968L75.6937 104.999C75.4594 105.609 75.2953 106.781 75.2719 107.812C75.2484 110.578 75.9984 111.913 79.7484 115.57C83.4281 119.179 84.2484 119.624 87.0844 119.648C90.7406 119.648 89.6625 120.515 105.202 105.023C120.881 89.39 120.248 90.1635 120.248 86.601C120.248 84.6557 120.178 84.3744 119.452 83.0385C118.889 81.9838 117.811 80.7416 115.678 78.6791C113.194 76.2182 112.491 75.6791 111.319 75.2338C109.608 74.601 107.1 74.5541 105.623 75.14L104.616 75.5385L100.725 71.6479L96.8578 67.7807L97.7484 66.5619C98.2172 65.9057 98.8266 64.7104 99.0844 63.9135C100.28 60.14 98.3578 55.8744 94.7016 54.1635C94.1156 53.8822 93.4828 53.6713 93.2719 53.6713C93.0141 53.6713 92.9437 53.5307 93.0844 53.1557C93.3656 52.2416 93.2016 49.5463 92.8031 48.4916C91.9125 46.2182 89.85 44.1791 87.7875 43.5697L86.9672 43.3119V41.0619C86.9672 39.0463 86.8969 38.6244 86.3109 37.4525C85.4906 35.8119 83.5219 33.9604 81.9984 33.3979L80.85 32.9994L80.8734 30.8432C80.8734 29.015 80.7797 28.5229 80.2641 27.3979C78.8344 24.351 76.5375 22.8744 72.6703 22.4994C71.3812 22.3822 66.9984 21.6557 62.9437 20.8588C54.8109 19.2885 52.5609 19.0541 51.0609 19.5463ZM60.1312 25.1244C63.0375 25.6635 65.4516 26.1322 65.5219 26.1791C65.5687 26.226 64.2562 27.6322 62.5922 29.2963L59.5687 32.3197L58.6312 31.8041C57.1547 31.0072 53.7797 27.515 53.0297 26.015C52.6781 25.3119 52.3969 24.515 52.3969 24.2807C52.3969 23.8822 52.5375 23.8588 53.639 23.976C54.2953 24.0697 57.225 24.5619 60.1312 25.1244ZM47.475 25.5463C47.6625 25.64 48.014 26.226 48.225 26.8354C49.5609 30.4447 54.0375 34.9447 58.1156 36.7963C59.475 37.4057 59.6625 37.5932 59.8734 38.3666C60.3656 40.1479 59.1469 42.2338 57.4359 42.5619C55.4437 42.9369 55.2797 42.8197 49.0453 36.6088C45.8344 33.4213 43.0687 30.5385 42.8812 30.1869C42.4125 29.2729 42.4594 27.6791 43.0219 26.765C43.889 25.3588 46.0453 24.7729 47.475 25.5463ZM73.8891 27.4447C74.8969 27.8197 75.8109 28.8275 76.0922 29.8119C76.5141 31.4291 76.1156 32.1557 73.0219 35.2729C70.2797 38.0619 70.2094 38.1557 70.2094 39.1869C70.2094 40.5932 71.0766 41.4838 72.5062 41.4838C73.4203 41.4838 73.6312 41.3432 75.3187 39.726C77.1937 37.9447 77.9672 37.4994 79.0687 37.4994C80.0062 37.4994 81.4828 38.4604 81.9516 39.3744C82.9594 41.2729 82.3031 42.7494 79.0922 45.8197C78.0141 46.851 76.9359 47.9525 76.725 48.2807C75.6703 49.8041 76.7719 51.7963 78.6469 51.7963C79.5375 51.7963 79.7719 51.6557 81.5531 49.9447C82.8187 48.726 83.7328 48.0463 84.2484 47.9291C85.8422 47.5775 87.4125 48.3041 88.1391 49.6869C88.5609 50.4838 88.6078 52.0775 88.2328 52.8041C88.0922 53.0854 86.8266 54.4916 85.4203 55.9213C83.0062 58.3822 82.8656 58.5697 82.8656 59.4838C82.8656 60.7963 83.5922 61.6166 84.9047 61.8041C85.8656 61.9213 85.9359 61.8979 87.4828 60.4213C89.9672 58.0307 91.1859 57.6322 92.9672 58.64C94.2094 59.3432 94.9125 60.7963 94.7016 62.1557C94.5375 63.0463 94.1391 63.5385 91.1625 66.5854C87.9516 69.8432 87.7875 70.0541 87.7875 70.9447C87.7875 72.4682 89.2172 73.64 90.6703 73.265C90.975 73.1947 91.725 72.7025 92.3344 72.1635L93.4594 71.1791L97.2328 74.9525L101.03 78.7494L90.1781 89.5775L79.35 100.429L75.4828 96.5619L71.5922 92.6713L73.725 90.5619C75.975 88.3119 76.1859 87.8432 75.5062 86.5072C75.1078 85.7807 74.2406 85.3119 73.2094 85.3119C72.6469 85.3119 72.1547 85.64 70.8187 86.9525C68.0766 89.601 66.6937 89.9525 60.5766 89.5541C56.475 89.2963 54.1312 89.4838 52.4437 90.2338C51.6234 90.5854 50.1 91.9682 46.4906 95.5541L41.639 100.382L30.8578 89.6479C24.9047 83.7416 20.0531 78.7963 20.0531 78.6557C20.0531 78.515 21.7406 76.7104 23.7797 74.6713L27.5062 70.9447L28.6547 71.4369C30.9984 72.4447 33.5297 72.3041 35.85 71.0619C37.9125 69.9369 39.6 67.5229 39.9047 65.2025C40.0687 63.9838 40.2562 63.7494 41.1937 63.7494C42.3422 63.7494 44.3812 62.8119 45.5765 61.7338C46.9594 60.4916 47.9203 58.64 48.1547 56.9057L48.2953 55.6635L49.5375 55.5229C51.2719 55.2885 53.1234 54.3275 54.3656 52.9447C55.4437 51.7494 56.3812 49.7104 56.3812 48.5619C56.3812 47.6244 56.6156 47.4369 57.9047 47.2494C60.5062 46.9213 62.85 45.0697 64.0687 42.4682C64.9125 40.64 64.9359 37.9682 64.1156 36.14L63.5766 34.8744L66.9516 31.4994C71.0531 27.3979 72.1078 26.765 73.8891 27.4447ZM40.6312 35.601C41.4515 35.8588 49.4437 43.3119 50.8969 45.2104C52.7719 47.6479 51.2719 50.8588 48.2953 50.8588C47.8265 50.8588 47.2172 50.7416 46.9359 50.601C46.6547 50.4604 44.2406 48.1635 41.5453 45.4916C36.2719 40.2416 35.9672 39.8197 36.4359 38.015C36.7172 36.9838 37.725 35.9291 38.7094 35.6244C39.6234 35.3666 39.7406 35.3666 40.6312 35.601ZM34.5844 45.9369C35.639 46.2182 43.139 53.6713 43.3734 54.6791C43.6078 55.6166 43.3734 57.0463 42.8812 57.726C41.7562 59.2494 39.5297 59.5307 37.9594 58.3822C36.5765 57.3744 30.9515 51.5619 30.5062 50.6947C29.6859 49.0541 30.3656 47.0385 32.0531 46.1947C33.2015 45.6322 33.4359 45.6088 34.5844 45.9369ZM30.7406 58.3588C31.6078 58.7104 34.5844 61.5932 34.9594 62.5072C36.1078 65.2025 33.6937 67.9916 30.8812 67.2182C29.6859 66.89 26.5219 63.726 26.1937 62.5307C25.4672 59.8354 28.1156 57.3744 30.7406 58.3588ZM112.538 82.3119C115.538 85.3354 115.842 85.8275 115.561 87.3744C115.42 88.1244 113.85 89.8119 102.366 101.296C95.1937 108.492 88.9828 114.538 88.5844 114.726C87.6937 115.148 86.6859 115.171 85.9828 114.773C85.6781 114.609 84.2953 113.32 82.8656 111.937C80.1703 109.242 79.7016 108.468 79.9828 107.015C80.0766 106.453 82.7953 103.593 93.0375 93.3041C100.139 86.1791 106.28 80.1322 106.655 79.8979C107.1 79.6166 107.78 79.4525 108.53 79.4525H109.678L112.538 82.3119Z" fill="#15A02B"/>
<path d="M79.7719 78.1632C78.4359 78.9132 78.225 80.6945 79.3266 81.8195C80.9906 83.4601 83.8266 81.7726 83.1 79.5695C82.9594 79.1476 82.6547 78.632 82.4203 78.421C81.8109 77.8585 80.5219 77.7413 79.7719 78.1632Z" fill="#15A02B"/>
<path d="M16.1625 100.992C15.8813 101.109 15.4359 101.507 15.1313 101.882C14.4516 102.75 14.5922 104.179 15.4828 104.929C16.9359 106.195 19.35 105.14 19.35 103.265C19.35 101.718 17.5219 100.429 16.1625 100.992Z" fill="#15A02B"/>
</g>
<defs>
<clipPath id="clip0_797_11447">
<rect width="120" height="120" fill="white" transform="translate(0.599976)"/>
</clipPath>
</defs>
</svg>
