<svg width="32" height="32" viewBox="0 0 32 32" fill="none" xmlns="http://www.w3.org/2000/svg">
    <style>
        svg path:nth-child(even) {
            transition: all 300ms ease-linear;
        }
        svg:hover path:nth-child(even) {
            fill: #15A02B;
            transition: all 300ms ease-linear;
        }
    </style>
<path d="M27.2 0H4.8C2.14903 0 0 2.14903 0 4.8V27.2C0 29.851 2.14903 32 4.8 32H27.2C29.851 32 32 29.851 32 27.2V4.8C32 2.14903 29.851 0 27.2 0Z" fill="#059BD8"/>
<path d="M26.6875 10.5625C26.4375 9.62497 25.625 8.87497 24.6875 8.62497C22.5625 8.06247 9.74997 7.99997 7.31247 8.62497C6.37497 8.87497 5.56247 9.62497 5.31247 10.5625C4.74997 12.9375 4.68747 19 5.31247 21.4375C5.56247 22.375 6.37497 23.125 7.31247 23.375C9.56247 24 22.375 24 24.6875 23.375C25.625 23.125 26.4375 22.375 26.6875 21.4375C27.25 19.1875 27.25 12.875 26.6875 10.5625Z" fill="white"/>
<path d="M13.75 12.6875V19.3125L19.5625 16" fill="#059BD8"/>
</svg>
